<?xml version="1.0" encoding="UTF-8"?>
<svg width="80px" height="17px" viewBox="0 0 80 17" version="1.1" xmlns="http://www.w3.org/2000/svg" xmlns:xlink="http://www.w3.org/1999/xlink">
    <!-- Generator: Sketch 51 (57462) - http://www.bohemiancoding.com/sketch -->
    <title>KEVEN.</title>
    <desc>Created with Sketch.</desc>
    <defs></defs>
    <g id="Page-1" stroke="none" stroke-width="1" fill="none" fill-rule="evenodd">
        <g id="Desktop-Copy" transform="translate(-501.000000, -28.000000)" fill="#FFFFFF">
            <path d="M509.76681,35.9198856 L516.038627,44.2060086 L510.613734,44.2060086 L505.509299,37.0414878 L505.509299,44.2060086 L501,44.2060086 L501,28 L505.509299,28 L505.509299,35.0042918 L510.659514,28 L516.038627,28 L509.76681,35.9198856 Z M522.035765,31.5937053 L522.035765,34.2718169 L527.277539,34.2718169 L527.277539,37.6824034 L522.035765,37.6824034 L522.035765,40.6123033 L527.964235,40.6123033 L527.964235,44.2060086 L517.526466,44.2060086 L517.526466,28 L527.964235,28 L527.964235,31.5937053 L522.035765,31.5937053 Z M533.663805,28 L537.32618,39.6738197 L540.965665,28 L545.749642,28 L540.2103,44.2060086 L534.41917,44.2060086 L528.879828,28 L533.663805,28 Z M551.586552,31.5937053 L551.586552,34.2718169 L556.828326,34.2718169 L556.828326,37.6824034 L551.586552,37.6824034 L551.586552,40.6123033 L557.515021,40.6123033 L557.515021,44.2060086 L547.077253,44.2060086 L547.077253,28 L557.515021,28 L557.515021,31.5937053 L551.586552,31.5937053 Z M574.545064,44.2060086 L570.035765,44.2060086 L564.084406,35.1645207 L564.084406,44.2060086 L559.575107,44.2060086 L559.575107,28.0228898 L564.084406,28.0228898 L570.035765,37.1788269 L570.035765,28.0228898 L574.545064,28.0228898 L574.545064,44.2060086 Z M581,39.8111588 L581,44.2060086 L576.444921,44.2060086 L576.444921,39.8111588 L581,39.8111588 Z" id="KEVEN."></path>
        </g>
    </g>
</svg>